<svg width="85" height="85" viewBox="0 0 85 85" fill="none" xmlns="http://www.w3.org/2000/svg">
<ellipse cx="42.1554" cy="42.5" rx="42.1554" ry="42.5" fill="#659480"/>
<path d="M38.8241 16.498L22.4166 20.8514C16.4651 22.4305 13.9337 26.8006 15.5337 32.7133L20.9524 52.7389C22.5786 58.7485 26.9565 61.2022 32.9079 59.6231L49.3154 55.2697C55.3628 53.6651 57.8173 49.3985 56.1911 43.3889L50.7723 23.3634C49.1724 17.4507 44.8714 14.8935 38.8241 16.498Z" fill="url(#paint0_linear_49_574)"/>
<g filter="url(#filter0_b_49_574)">
<path d="M54.2533 26.8606H37.2669C31.1056 26.8606 27.5182 30.433 27.5182 36.5543V57.2863C27.5182 63.5079 31.1056 67 37.2669 67H54.2533C60.5139 67 64 63.5079 64 57.2863V36.5543C64 30.433 60.5139 26.8606 54.2533 26.8606Z" fill="white" fill-opacity="0.5"/>
<path d="M54.2533 26.3606H37.2669C34.0904 26.3606 31.5131 27.2832 29.7294 29.0575C27.9454 30.8321 27.0182 33.3963 27.0182 36.5543V57.2863C27.0182 60.4924 27.9444 63.0631 29.7302 64.8315C31.5153 66.5992 34.0934 67.5 37.2669 67.5H54.2533C57.4746 67.5 60.054 66.6001 61.8276 64.8301C63.6013 63.06 64.5 60.4886 64.5 57.2863V36.5543C64.5 33.4002 63.6003 30.8352 61.8284 29.0589C60.0562 27.2822 57.4776 26.3606 54.2533 26.3606Z" stroke="url(#paint1_linear_49_574)" stroke-linecap="round" stroke-linejoin="round"/>
</g>
<g filter="url(#filter1_bd_49_574)">
<mask id="path-5-inside-1_49_574" fill="white">
<path fill-rule="evenodd" clip-rule="evenodd" d="M37.814 36.1938V36.2139C36.9405 36.2139 36.2332 36.9163 36.2332 37.7793C36.2332 38.6423 36.9405 39.3448 37.814 39.3448H43.872C44.7456 39.3448 45.4549 38.6423 45.4549 37.7573C45.4549 36.8963 44.7456 36.1938 43.872 36.1938H37.814ZM53.7039 48.4166H37.814C36.9405 48.4166 36.2332 47.7142 36.2332 46.8512C36.2332 45.9882 36.9405 45.2837 37.814 45.2837H53.7039C54.5754 45.2837 55.2848 45.9882 55.2848 46.8512C55.2848 47.7142 54.5754 48.4166 53.7039 48.4166ZM53.704 57.5883H37.8142C37.2062 57.6686 36.6184 57.3675 36.2941 56.8658C35.9698 56.344 35.9698 55.6817 36.2941 55.18C36.6184 54.6581 37.2062 54.3772 37.8142 54.4374H53.704C54.5127 54.5177 55.1228 55.2 55.1228 56.0229C55.1228 56.8237 54.5127 57.508 53.704 57.5883Z"/>
</mask>
<path fill-rule="evenodd" clip-rule="evenodd" d="M37.814 36.1938V36.2139C36.9405 36.2139 36.2332 36.9163 36.2332 37.7793C36.2332 38.6423 36.9405 39.3448 37.814 39.3448H43.872C44.7456 39.3448 45.4549 38.6423 45.4549 37.7573C45.4549 36.8963 44.7456 36.1938 43.872 36.1938H37.814ZM53.7039 48.4166H37.814C36.9405 48.4166 36.2332 47.7142 36.2332 46.8512C36.2332 45.9882 36.9405 45.2837 37.814 45.2837H53.7039C54.5754 45.2837 55.2848 45.9882 55.2848 46.8512C55.2848 47.7142 54.5754 48.4166 53.7039 48.4166ZM53.704 57.5883H37.8142C37.2062 57.6686 36.6184 57.3675 36.2941 56.8658C35.9698 56.344 35.9698 55.6817 36.2941 55.18C36.6184 54.6581 37.2062 54.3772 37.8142 54.4374H53.704C54.5127 54.5177 55.1228 55.2 55.1228 56.0229C55.1228 56.8237 54.5127 57.508 53.704 57.5883Z" fill="url(#paint2_linear_49_574)"/>
<path d="M37.814 36.2139V36.6139H38.214V36.2139H37.814ZM37.814 36.1938V35.7938H37.414V36.1938H37.814ZM37.8142 57.5883V57.1883H37.7879L37.7618 57.1918L37.8142 57.5883ZM53.704 57.5883V57.9883H53.7238L53.7436 57.9864L53.704 57.5883ZM36.2941 56.8658L35.9543 57.077L35.9582 57.0829L36.2941 56.8658ZM36.2941 55.18L36.6301 55.3971L36.6339 55.3911L36.2941 55.18ZM37.8142 54.4374L37.7748 54.8354L37.7944 54.8374H37.8142V54.4374ZM53.704 54.4374L53.7436 54.0393L53.7238 54.0374H53.704V54.4374ZM38.214 36.2139V36.1938H37.414V36.2139H38.214ZM36.6332 37.7793C36.6332 37.1406 37.158 36.6139 37.814 36.6139V35.8139C36.723 35.8139 35.8332 36.6921 35.8332 37.7793H36.6332ZM37.814 38.9448C37.158 38.9448 36.6332 38.4181 36.6332 37.7793H35.8332C35.8332 38.8666 36.723 39.7448 37.814 39.7448V38.9448ZM43.872 38.9448H37.814V39.7448H43.872V38.9448ZM45.0549 37.7573C45.0549 38.421 44.525 38.9448 43.872 38.9448V39.7448C44.9661 39.7448 45.8549 38.8636 45.8549 37.7573H45.0549ZM43.872 36.5938C44.529 36.5938 45.0549 37.1215 45.0549 37.7573H45.8549C45.8549 36.671 44.9621 35.7938 43.872 35.7938V36.5938ZM37.814 36.5938H43.872V35.7938H37.814V36.5938ZM37.814 48.8166H53.7039V48.0166H37.814V48.8166ZM35.8332 46.8512C35.8332 47.9385 36.723 48.8166 37.814 48.8166V48.0166C37.158 48.0166 36.6332 47.4899 36.6332 46.8512H35.8332ZM37.814 44.8837C36.7223 44.8837 35.8332 45.7646 35.8332 46.8512H36.6332C36.6332 46.2118 37.1587 45.6837 37.814 45.6837V44.8837ZM53.7039 44.8837H37.814V45.6837H53.7039V44.8837ZM55.6848 46.8512C55.6848 45.7642 54.7933 44.8837 53.7039 44.8837V45.6837C54.3575 45.6837 54.8848 46.2121 54.8848 46.8512H55.6848ZM53.7039 48.8166C54.7926 48.8166 55.6848 47.9388 55.6848 46.8512H54.8848C54.8848 47.4896 54.3582 48.0166 53.7039 48.0166V48.8166ZM37.8142 57.9883H53.704V57.1883H37.8142V57.9883ZM35.9582 57.0829C36.3597 57.7042 37.0935 58.0869 37.8665 57.9849L37.7618 57.1918C37.3189 57.2502 36.8771 57.0309 36.6301 56.6487L35.9582 57.0829ZM35.9582 54.9628C35.5469 55.5992 35.5514 56.4285 35.9544 57.0769L36.6339 56.6547C36.3883 56.2595 36.3928 55.7642 36.6301 55.3971L35.9582 54.9628ZM37.8536 54.0393C37.0976 53.9645 36.3611 54.3144 35.9544 54.9688L36.6339 55.3911C36.8757 55.0019 37.3147 54.7899 37.7748 54.8354L37.8536 54.0393ZM53.704 54.0374H37.8142V54.8374H53.704V54.0374ZM55.5228 56.0229C55.5228 54.9988 54.7612 54.1404 53.7436 54.0393L53.6645 54.8354C54.2642 54.895 54.7228 55.4012 54.7228 56.0229H55.5228ZM53.7436 57.9864C54.7584 57.8856 55.5228 57.0277 55.5228 56.0229H54.7228C54.7228 56.6196 54.2671 57.1305 53.6645 57.1903L53.7436 57.9864Z" fill="url(#paint3_linear_49_574)" mask="url(#path-5-inside-1_49_574)"/>
</g>
<defs>
<filter id="filter0_b_49_574" x="2.51819" y="1.86063" width="86.4818" height="90.1394" filterUnits="userSpaceOnUse" color-interpolation-filters="sRGB">
<feFlood flood-opacity="0" result="BackgroundImageFix"/>
<feGaussianBlur in="BackgroundImageFix" stdDeviation="12"/>
<feComposite in2="SourceAlpha" operator="in" result="effect1_backgroundBlur_49_574"/>
<feBlend mode="normal" in="SourceGraphic" in2="effect1_backgroundBlur_49_574" result="shape"/>
</filter>
<filter id="filter1_bd_49_574" x="21.0509" y="21.1938" width="49.2338" height="51.4074" filterUnits="userSpaceOnUse" color-interpolation-filters="sRGB">
<feFlood flood-opacity="0" result="BackgroundImageFix"/>
<feGaussianBlur in="BackgroundImageFix" stdDeviation="7.5"/>
<feComposite in2="SourceAlpha" operator="in" result="effect1_backgroundBlur_49_574"/>
<feColorMatrix in="SourceAlpha" type="matrix" values="0 0 0 0 0 0 0 0 0 0 0 0 0 0 0 0 0 0 127 0" result="hardAlpha"/>
<feOffset dx="5" dy="5"/>
<feGaussianBlur stdDeviation="5"/>
<feColorMatrix type="matrix" values="0 0 0 0 0.396078 0 0 0 0 0.580392 0 0 0 0 0.501961 0 0 0 1 0"/>
<feBlend mode="normal" in2="effect1_backgroundBlur_49_574" result="effect2_dropShadow_49_574"/>
<feBlend mode="normal" in="SourceGraphic" in2="effect2_dropShadow_49_574" result="shape"/>
</filter>
<linearGradient id="paint0_linear_49_574" x1="30.6193" y1="18.675" x2="40.9201" y2="57.4972" gradientUnits="userSpaceOnUse">
<stop stop-color="white"/>
<stop offset="1" stop-color="white"/>
</linearGradient>
<linearGradient id="paint1_linear_49_574" x1="26" y1="25.5" x2="67.5669" y2="63.0517" gradientUnits="userSpaceOnUse">
<stop stop-color="white" stop-opacity="0.25"/>
<stop offset="1" stop-color="white" stop-opacity="0"/>
</linearGradient>
<linearGradient id="paint2_linear_49_574" x1="53.9211" y1="40.0596" x2="32.492" y2="40.6873" gradientUnits="userSpaceOnUse">
<stop stop-color="#659480"/>
<stop offset="1" stop-color="#659480"/>
</linearGradient>
<linearGradient id="paint3_linear_49_574" x1="39.1126" y1="38.6878" x2="53.0025" y2="54.1441" gradientUnits="userSpaceOnUse">
<stop stop-color="white" stop-opacity="0.25"/>
<stop offset="1" stop-color="white" stop-opacity="0"/>
</linearGradient>
</defs>
</svg>
